<svg width="256" height="256" viewBox="0 0 256 256" fill="none" xmlns="http://www.w3.org/2000/svg">
<rect width="256" height="256" rx="60" fill="white"/>
<path d="M78 58C66.9543 58 58 66.9543 58 78V98H78C89.0457 98 98 89.0457 98 78C98 66.9543 89.0457 58 78 58Z" fill="#E01E5A"/>
<path d="M108 78C108 66.9543 116.954 58 128 58C139.046 58 148 66.9543 148 78V128H108V78Z" fill="#E01E5A"/>
<path d="M178 58C189.046 58 198 66.9543 198 78C198 89.0457 189.046 98 178 98H158V78C158 66.9543 166.954 58 178 58Z" fill="#36C5F0"/>
<path d="M178 108C189.046 108 198 116.954 198 128C198 139.046 189.046 148 178 148H128V108H178Z" fill="#36C5F0"/>
<path d="M178 198C189.046 198 198 189.046 198 178V158H178C166.954 158 158 166.954 158 178C158 189.046 166.954 198 178 198Z" fill="#2EB67D"/>
<path d="M148 178C148 189.046 139.046 198 128 198C116.954 198 108 189.046 108 178V128H148V178Z" fill="#2EB67D"/>
<path d="M78 198C66.9543 198 58 189.046 58 178C58 166.954 66.9543 158 78 158H98V178C98 189.046 89.0457 198 78 198Z" fill="#ECB22E"/>
<path d="M78 148C66.9543 148 58 139.046 58 128C58 116.954 66.9543 108 78 108H128V148H78Z" fill="#ECB22E"/>
</svg>
