<svg width="256" height="256" viewBox="0 0 256 256" fill="none" xmlns="http://www.w3.org/2000/svg">
<rect width="256" height="256" rx="60" fill="white"/>
<path d="M78 52C65.8497 52 56 61.8497 56 74C56 86.1503 65.8497 96 78 96H96V74C96 61.8497 87.9411 52 78 52Z" fill="#E01E5A"/>
<path d="M106 96C118.15 96 128 86.1503 128 74V56C128 43.8497 118.15 34 106 34C93.8497 34 84 43.8497 84 56V96H106Z" fill="#E01E5A"/>
<path d="M128 178C128 190.15 118.15 200 106 200C93.8497 200 84 190.15 84 178V160H106C118.15 160 128 169.85 128 178Z" fill="#2EB67D"/>
<path d="M96 150C96 137.85 86.1503 128 74 128H56C43.8497 128 34 137.85 34 150C34 162.15 43.8497 172 56 172H96V150Z" fill="#2EB67D"/>
<path d="M178 200C190.15 200 200 190.15 200 178C200 165.85 190.15 156 178 156H160V178C160 190.15 168.059 200 178 200Z" fill="#ECB22E"/>
<path d="M150 156C137.85 156 128 165.85 128 178V196C128 208.15 137.85 218 150 218C162.15 218 172 208.15 172 196V156H150Z" fill="#ECB22E"/>
<path d="M128 74C128 61.8497 137.85 52 150 52C162.15 52 172 61.8497 172 74V92H150C137.85 92 128 82.1503 128 74Z" fill="#36C5F0"/>
<path d="M160 102C160 114.15 169.85 124 182 124H200C212.15 124 222 114.15 222 102C222 89.8497 212.15 80 200 80H160V102Z" fill="#36C5F0"/>
</svg>
