<svg width="256" height="256" viewBox="0 0 256 256" fill="none" xmlns="http://www.w3.org/2000/svg">
<rect width="256" height="256" rx="60" fill="#07C160"/>
<path d="M93 118C93 115.239 95.2386 113 98 113C100.761 113 103 115.239 103 118C103 120.761 100.761 123 98 123C95.2386 123 93 120.761 93 118Z" fill="white"/>
<path d="M143 118C143 115.239 145.239 113 148 113C150.761 113 153 115.239 153 118C153 120.761 150.761 123 148 123C145.239 123 143 120.761 143 118Z" fill="white"/>
<path d="M168 83C168 80.2386 170.239 78 173 78C175.761 78 178 80.2386 178 83C178 85.7614 175.761 88 173 88C170.239 88 168 85.7614 168 83Z" fill="white"/>
<path d="M208 83C208 80.2386 210.239 78 213 78C215.761 78 218 80.2386 218 83C218 85.7614 215.761 88 213 88C210.239 88 208 85.7614 208 83Z" fill="white"/>
<path fill-rule="evenodd" clip-rule="evenodd" d="M123 133C123 157.853 100.614 178 73 178C68.9634 178 65.0471 177.575 61.3045 176.77L48 183L51.3524 170.155C40.6387 163.021 33 151.056 33 137.5C33 112.923 55.3858 93 83 93C110.614 93 133 113.147 133 138H123ZM148 143C148 162.33 168.147 178 193 178C217.853 178 238 162.33 238 143C238 123.67 217.853 108 193 108C168.147 108 148 123.67 148 143Z" fill="white"/>
</svg>
