<svg width="256" height="256" viewBox="0 0 256 256" fill="none" xmlns="http://www.w3.org/2000/svg">
<rect width="256" height="256" rx="60" fill="#07C160"/>
<path d="M172 136C172 160.301 150.509 180 124 180C110.975 180 99.1607 175.253 90.3831 167.587L68 180L72.4341 158.468C61.3461 152.929 54 145.021 54 136C54 111.699 75.4913 92 102 92C128.509 92 150 111.699 150 136" fill="white"/>
<path d="M202 96C202 115.882 184.091 132 162 132C151.171 132 141.353 128.117 134.056 121.844L116 132L119.689 114.383C110.474 109.851 104 103.381 104 96C104 76.1178 121.909 60 144 60C166.091 60 184 76.1178 184 96" fill="white"/>
<circle cx="90" cy="126" r="6" fill="#07C160"/>
<circle cx="118" cy="126" r="6" fill="#07C160"/>
<circle cx="146" cy="90" r="5" fill="#07C160"/>
<circle cx="168" cy="90" r="5" fill="#07C160"/>
</svg>
