<svg width="256" height="256" viewBox="0 0 256 256" fill="none" xmlns="http://www.w3.org/2000/svg">
<rect width="256" height="256" rx="64" fill="white"/>
<path d="M128 48C83.8172 48 48 83.8172 48 128C48 172.183 83.8172 208 128 208C172.183 208 208 172.183 208 128C208 83.8172 172.183 48 128 48Z" fill="#3B82F6"/>
<path d="M128 64C92.6538 64 64 92.6538 64 128C64 163.346 92.6538 192 128 192C163.346 192 192 163.346 192 128C192 92.6538 163.346 64 128 64ZM128 176C101.49 176 80 154.51 80 128C80 101.49 101.49 80 128 80C154.51 80 176 101.49 176 128C176 154.51 154.51 176 128 176Z" fill="#10B981"/>
<path d="M160 128C160 145.673 145.673 160 128 160C110.327 160 96 145.673 96 128C96 110.327 110.327 96 128 96C145.673 96 160 110.327 160 128Z" fill="#059669"/>
</svg>
