<svg width="256" height="256" viewBox="0 0 256 256" fill="none" xmlns="http://www.w3.org/2000/svg">
<rect width="256" height="256" rx="64" fill="white"/>
<circle cx="128" cy="128" r="80" fill="#E66000"/>
<path d="M128 48C83.8172 48 48 83.8172 48 128C48 172.183 83.8172 208 128 208C172.183 208 208 172.183 208 128C208 83.8172 172.183 48 128 48Z" fill="#FF9500"/>
<path d="M128 64C92.6538 64 64 92.6538 64 128C64 163.346 92.6538 192 128 192C163.346 192 192 163.346 192 128C192 92.6538 163.346 64 128 64Z" fill="#FFCB2B"/>
</svg>
