<svg width="256" height="256" viewBox="0 0 256 256" fill="none" xmlns="http://www.w3.org/2000/svg">
<rect width="256" height="256" rx="64" fill="white"/>
<circle cx="128" cy="128" r="80" fill="#29ABE2"/>
<path d="M128 48C83.8172 48 48 83.8172 48 128C48 172.183 83.8172 208 128 208C172.183 208 208 172.183 208 128C208 83.8172 172.183 48 128 48ZM128 198C89.3401 198 58 166.66 58 128C58 89.3401 89.3401 58 128 58C166.66 58 198 89.3401 198 128C198 166.66 166.66 198 128 198Z" fill="white"/>
<path d="M165.657 90.3431L90.3431 165.657L100.343 120.343L165.657 90.3431Z" fill="#EA4335"/>
<path d="M90.3431 165.657L165.657 90.3431L155.657 135.657L90.3431 165.657Z" fill="#EA4335"/>
</svg>
